<svg width="25" height="20" viewBox="0 0 25 20" fill="none" xmlns="http://www.w3.org/2000/svg">
<g id="Frame 44">
<path id="Vector" d="M0.961548 0.769287V19.2493H24.4815V0.769287H0.961548ZM23.9215 18.6493H1.52155V5.44929H23.9215V18.6493ZM23.9215 4.84929H1.52155V1.32929H23.9215V4.84929Z" fill="#182349"/>
<path id="Vector_2" d="M3.20154 3.84918C3.59918 3.84918 3.92154 3.52682 3.92154 3.12918C3.92154 2.73153 3.59918 2.40918 3.20154 2.40918C2.80389 2.40918 2.48154 2.73153 2.48154 3.12918C2.48154 3.52682 2.80389 3.84918 3.20154 3.84918Z" fill="black"/>
<path id="Vector_3" d="M5.96155 2.40918C5.56155 2.40918 5.24155 2.72918 5.24155 3.12918C5.24155 3.52918 5.56155 3.84918 5.96155 3.84918C6.36155 3.84918 6.68155 3.52918 6.68155 3.12918C6.68155 2.72918 6.36155 2.40918 5.96155 2.40918Z" fill="black"/>
<path id="Vector_4" d="M8.68155 2.40918C8.28155 2.40918 7.96155 2.72918 7.96155 3.12918C7.96155 3.52918 8.28155 3.84918 8.68155 3.84918C9.08155 3.84918 9.40155 3.52918 9.40155 3.12918C9.40155 2.72918 9.08155 2.40918 8.68155 2.40918Z" fill="black"/>
<path id="Vector_5" d="M16.8416 15.5692L20.2416 12.1692C20.3216 12.0892 20.3616 12.0092 20.3616 11.9292C20.3616 11.8492 20.3216 11.7692 20.2416 11.6892L16.8416 8.28919C16.7616 8.20919 16.6816 8.16919 16.6016 8.16919C16.5216 8.16919 16.4416 8.20919 16.3616 8.28919C16.2816 8.36919 16.2416 8.44919 16.2416 8.52919C16.2416 8.60919 16.2816 8.68919 16.3616 8.76919L19.4816 11.8892L16.3216 15.0492C16.2416 15.1292 16.2016 15.2092 16.2016 15.2892C16.2016 15.3692 16.2416 15.4492 16.3216 15.5292C16.4816 15.6892 16.6816 15.6892 16.8416 15.5692Z" fill="black"/>
<path id="Vector_6" d="M9.12155 15.0892L6.00155 11.9292L9.12155 8.80919C9.28155 8.64919 9.28155 8.40919 9.12155 8.28919C9.04155 8.20919 8.96155 8.16919 8.88155 8.16919C8.80155 8.16919 8.72155 8.20919 8.64155 8.28919L5.24155 11.6892C5.16155 11.7292 5.12155 11.8492 5.12155 11.9292C5.12155 12.0092 5.16155 12.0892 5.24155 12.1692L8.64155 15.5692C8.76155 15.6892 9.00155 15.7292 9.12155 15.5692C9.24155 15.4492 9.24155 15.2092 9.12155 15.0892Z" fill="black"/>
<path id="Vector_7" d="M14.8815 8.44923C14.8415 8.36923 14.8015 8.28923 14.6815 8.24923C14.6015 8.20923 14.5615 8.20923 14.4815 8.20923C14.3615 8.20923 14.2415 8.28923 14.2015 8.40923L10.5615 15.1692C10.4815 15.3692 10.5215 15.5692 10.6815 15.6492C10.7215 15.6892 10.7615 15.6892 10.8415 15.6892C10.9615 15.6892 11.0815 15.6092 11.1615 15.4892L14.8015 8.72923C14.9215 8.60923 14.9215 8.52923 14.8815 8.44923Z" fill="black"/>
</g>
</svg>
