<svg width="25" height="24" viewBox="0 0 25 24" fill="none" xmlns="http://www.w3.org/2000/svg">
<g id="hand money" clip-path="url(#clip0_2431_1369)">
<g id="Group">
<path id="Vector" d="M14.18 21.5068C14.084 21.5068 13.94 21.5548 13.652 21.5548C13.22 21.5548 12.452 21.4588 11.444 21.1228L7.508 19.7308C7.268 19.6348 6.74 19.3468 5.78 19.2988H5.588L5.54 19.1068V14.1148H5.78C6.644 14.1148 8.324 14.1628 8.66 14.2108C8.852 14.2588 9.044 14.3548 9.332 14.4508C9.716 14.5948 10.196 14.7868 10.964 15.0748C12.308 15.5548 13.172 15.5068 13.364 15.5068H15.716C16.34 15.5068 16.82 15.9388 16.82 16.4668C16.82 16.9948 16.292 17.4268 15.716 17.4268H13.364L11.924 17.3788C11.732 17.3788 11.156 17.3308 10.724 17.7148C10.58 17.8588 10.388 18.0988 10.34 18.5788L11.06 18.5308C11.06 18.3868 11.108 18.2908 11.204 18.2428C11.444 18.0508 11.828 18.0988 11.828 18.0988L13.364 18.1468H15.764C16.676 18.1468 17.444 17.5228 17.54 16.7068V16.5628L17.684 16.5148L22.532 15.6028C22.724 15.5548 23.012 15.5548 23.204 15.6988C23.444 15.7948 23.588 15.9868 23.636 16.2268C23.684 16.4668 23.684 16.7068 23.588 16.9468C23.492 17.1388 23.3 17.3308 23.06 17.3788L17.396 20.0188L14.18 21.5068ZM4.868 19.7308C4.868 19.9228 4.724 20.0188 4.58 20.0188H3.428V13.0108H4.58C4.772 13.0108 4.868 13.1548 4.868 13.2988V19.7308ZM23.348 17.8588C23.78 17.7148 24.116 17.4748 24.308 17.0908C24.452 16.8508 24.5 16.6108 24.5 16.3708C24.5 16.1788 24.452 16.0348 24.452 15.8908C24.308 15.5068 24.068 15.1708 23.684 14.9308C23.3 14.7388 22.868 14.6908 22.484 14.7868L17.492 15.7468L17.396 15.6508C17.06 15.1228 16.484 14.8348 15.812 14.8348H13.412C13.316 14.8348 12.548 14.9308 11.3 14.4508C10.58 14.2108 10.1 14.0188 9.764 13.9228L9.62 13.8748C9.332 13.7788 9.092 13.6828 8.9 13.6348C8.756 13.5868 8.228 13.4908 5.78 13.4908H5.588V13.2508C5.54 12.7228 5.108 12.2908 4.58 12.2908H0.5V12.9628H2.708V20.0188H0.5V20.6908H4.58C5.012 20.6908 5.348 20.4508 5.492 20.0668L5.54 19.9228H5.684C6.596 19.9708 7.076 20.2108 7.124 20.2588L7.172 20.3068L11.156 21.7468C12.308 22.1308 13.124 22.2268 13.604 22.2268C14.084 22.2268 14.372 22.1308 14.372 22.1308L17.684 20.4988L23.348 17.8588Z" fill="#182349"/>
<path id="Vector_2" d="M13.316 12.2427C10.628 12.2427 8.468 10.0347 8.468 7.34671C8.468 4.65871 10.628 2.45071 13.316 2.45071C16.004 2.45071 18.164 4.65871 18.164 7.34671C18.164 10.0347 16.004 12.2427 13.316 12.2427ZM13.316 1.73071C10.244 1.73071 7.796 4.22671 7.748 7.34671C7.748 10.4187 10.244 12.9627 13.316 12.9627C16.388 12.9627 18.884 10.4667 18.884 7.34671C18.836 4.22671 16.388 1.73071 13.316 1.73071Z" fill="black"/>
<path id="Vector_3" d="M11.636 7.29877C11.636 5.95477 12.308 5.18677 13.364 5.18677C14.084 5.18677 14.468 5.52277 14.756 6.00277L14.276 6.33877C14.132 5.95477 13.796 5.76277 13.412 5.76277C12.884 5.76277 12.548 6.09877 12.404 6.62677H13.844V7.05877H12.404V7.58677H13.844V8.01877H12.404C12.5 8.54677 12.884 8.88277 13.412 8.88277C13.844 8.88277 14.18 8.64277 14.324 8.25877L14.804 8.59477C14.564 9.07477 14.132 9.45877 13.364 9.45877C12.308 9.41077 11.636 8.69077 11.636 7.29877Z" fill="black"/>
</g>
</g>
<defs>
<clipPath id="clip0_2431_1369">
<rect width="24" height="24" fill="white" transform="translate(0.5)"/>
</clipPath>
</defs>
</svg>
