<svg width="25" height="25" viewBox="0 0 25 25" fill="none" xmlns="http://www.w3.org/2000/svg">
<g id="Home">
<g id="Layer_1">
<path id="Vector" d="M19.9401 20.8364L19.9401 11.4262L21.949 12.9593C22.0019 13.0122 22.1605 13.0651 22.2133 13.0651C22.3719 13.0651 22.4777 13.0122 22.5305 12.9065C22.6363 12.695 22.6363 12.4307 22.4248 12.2721L12.9089 4.8708C12.7503 4.76507 12.5388 4.76507 12.3274 4.8708L2.75857 12.3249C2.65284 12.3778 2.59998 12.5364 2.59998 12.6421C2.59998 12.7479 2.59998 12.8536 2.70571 12.9593C2.81144 13.0651 2.91717 13.1179 3.02291 13.1708C3.12864 13.1708 3.23437 13.1708 3.3401 13.0651L5.40188 11.4791V20.3606C5.40188 20.6249 5.61335 20.8364 5.87768 20.8364H18.9885V19.8848H6.30061V10.7389L12.6445 5.82239L18.9885 10.7389L18.9885 20.8364H19.9401Z" fill="#182349"/>
</g>
</g>
</svg>
