<svg width="23" height="23" viewBox="0 0 23 23" fill="none" xmlns="http://www.w3.org/2000/svg">
<g id="icon" clip-path="url(#clip0_1963_130793)">
<path id="Vector" d="M21.4208 14.8379V20.2605C21.4208 20.62 21.278 20.9648 21.0238 21.2191C20.7695 21.4733 20.4247 21.6161 20.0652 21.6161H14.6426" stroke="#007DA4" stroke-width="1.12971" stroke-linecap="round" stroke-linejoin="round"/>
<path id="Vector_2" d="M14.6426 1.28125H20.0652C20.4247 1.28125 20.7695 1.42408 21.0238 1.67831C21.278 1.93254 21.4208 2.27736 21.4208 2.6369V8.05949" stroke="#007DA4" stroke-width="1.12971" stroke-linecap="round" stroke-linejoin="round"/>
<path id="Vector_3" d="M1.08594 8.05949V2.6369C1.08594 2.27736 1.22876 1.93254 1.483 1.67831C1.73723 1.42408 2.08205 1.28125 2.44159 1.28125H7.86418" stroke="#007DA4" stroke-width="1.12971" stroke-linecap="round" stroke-linejoin="round"/>
<path id="Vector_4" d="M7.86418 21.6161H2.44159C2.08205 21.6161 1.73723 21.4733 1.483 21.2191C1.22876 20.9648 1.08594 20.62 1.08594 20.2605V14.8379" stroke="#007DA4" stroke-width="1.12971" stroke-linecap="round" stroke-linejoin="round"/>
<path id="Vector_5" d="M11.2539 6.70312V16.1927" stroke="#007DA4" stroke-width="1.12971" stroke-linecap="round" stroke-linejoin="round"/>
<path id="Vector_6" d="M7.86523 8.73633V14.1589" stroke="#007DA4" stroke-width="1.12971" stroke-linecap="round" stroke-linejoin="round"/>
<path id="Vector_7" d="M14.6426 8.73633V14.1589" stroke="#007DA4" stroke-width="1.12971" stroke-linecap="round" stroke-linejoin="round"/>
<path id="Vector_8" d="M4.47461 10.0938V12.805" stroke="#007DA4" stroke-width="1.12971" stroke-linecap="round" stroke-linejoin="round"/>
<path id="Vector_9" d="M18.0312 10.0938V12.805" stroke="#007DA4" stroke-width="1.12971" stroke-linecap="round" stroke-linejoin="round"/>
</g>
<defs>
<clipPath id="clip0_1963_130793">
<rect width="21.6904" height="21.6904" fill="white" transform="translate(0.408203 0.603516)"/>
</clipPath>
</defs>
</svg>
