<svg width="20" height="21" viewBox="0 0 20 21" fill="none" xmlns="http://www.w3.org/2000/svg">
<g id="logout">
<g id="Group">
<path id="Vector" d="M12.3168 12.3859C12.0071 12.3859 11.7562 12.6367 11.7562 12.9464V16.4152C11.7562 16.7244 11.5049 16.9757 11.1957 16.9757H3.34828C3.03908 16.9757 2.78775 16.7244 2.78775 16.4152V4.68165C2.78775 4.37245 3.03908 4.12112 3.34828 4.12112H11.1957C11.5049 4.12112 11.7562 4.37245 11.7562 4.68165V8.15042C11.7562 8.46009 12.0071 8.71095 12.3168 8.71095C12.6264 8.71095 12.8773 8.46009 12.8773 8.15042V4.68165C12.8773 3.75438 12.123 3.00006 11.1957 3.00006H3.34828C2.421 3.00006 1.66669 3.75438 1.66669 4.68165V16.4152C1.66669 17.3424 2.421 18.0968 3.34828 18.0968H11.1957C12.123 18.0968 12.8773 17.3424 12.8773 16.4152V12.9464C12.8773 12.6369 12.6264 12.3859 12.3168 12.3859ZM18.3325 10.544C18.3323 10.5089 18.3287 10.4737 18.322 10.4389C18.3179 10.4201 18.3112 10.4026 18.3059 10.3841C18.3007 10.3677 18.2971 10.351 18.2904 10.3345C18.2812 10.3119 18.2687 10.2915 18.2568 10.2704C18.2507 10.2596 18.246 10.2485 18.2393 10.2382C18.2181 10.2063 18.1942 10.1772 18.1673 10.1503L14.9457 6.92834C14.7265 6.70922 14.3718 6.70922 14.153 6.92834C13.9339 7.14714 13.9339 7.50216 14.153 7.72097L16.4191 9.98796H6.33755C6.02788 9.98796 5.77702 10.2388 5.77702 10.5485C5.77702 10.8582 6.02788 11.109 6.33755 11.109H16.4195L14.1527 13.3758C13.9336 13.595 13.9336 13.9497 14.1527 14.1685C14.2621 14.278 14.4056 14.3325 14.5491 14.3325C14.6927 14.3325 14.836 14.2778 14.9456 14.1685L18.1691 10.9449C18.1723 10.9418 18.1743 10.9381 18.1774 10.9348C18.1998 10.9115 18.2207 10.8866 18.2386 10.8597C18.2487 10.8445 18.2558 10.8278 18.2644 10.812C18.2731 10.7959 18.283 10.7801 18.2902 10.7631C18.2983 10.7433 18.303 10.7229 18.3088 10.7027C18.3133 10.6878 18.319 10.6736 18.3221 10.6581C18.3293 10.622 18.3334 10.5852 18.3334 10.5483C18.3329 10.5469 18.3324 10.5455 18.3324 10.5439L18.3325 10.544Z" fill="black"/>
</g>
</g>
</svg>
