<svg width="25" height="24" viewBox="0 0 25 24" fill="none" xmlns="http://www.w3.org/2000/svg">
<g id="Mobility " clip-path="url(#clip0_2431_1400)">
<path id="Vector" d="M12.5095 23.962C11.9589 23.9679 11.4262 23.7666 11.017 23.3982C10.6077 23.0298 10.3518 22.5212 10.2999 21.973C10.248 21.4248 10.4039 20.8771 10.7367 20.4384C11.0696 19.9998 11.555 19.7022 12.0969 19.6045L12.1858 19.5855V15.1042H12.0906C11.5366 15.031 11.012 14.812 10.5704 14.4695L10.5101 14.3965L7.33639 17.5702L7.39352 17.6495C7.58699 17.9329 7.71106 18.2578 7.7557 18.598C7.80035 18.9382 7.76431 19.2842 7.6505 19.6078C7.53669 19.9315 7.3483 20.2239 7.10057 20.4613C6.85285 20.6987 6.55273 20.8745 6.22449 20.9744C5.89625 21.0743 5.5491 21.0956 5.21111 21.0366C4.87312 20.9775 4.55377 20.8397 4.27889 20.6343C4.00401 20.429 3.78132 20.1618 3.62881 19.8545C3.4763 19.5471 3.39826 19.2082 3.401 18.8651C3.40093 18.5784 3.45813 18.2947 3.56923 18.0305C3.68033 17.7663 3.8431 17.5269 4.04798 17.3265C4.25286 17.126 4.49572 16.9685 4.7623 16.8632C5.02889 16.7579 5.31382 16.707 5.60038 16.7133C6.03599 16.7129 6.46168 16.8434 6.82225 17.0878L6.89842 17.1386L10.0721 13.9649L10.0086 13.8919C9.66615 13.4503 9.4471 12.9257 9.37391 12.3717V12.2765H4.87677L4.86091 12.3653C4.75908 12.8653 4.48969 13.3155 4.09727 13.6415C3.70486 13.9676 3.21292 14.1499 2.70279 14.1585C2.28503 14.1591 1.87573 14.0408 1.52278 13.8173C1.16983 13.5938 0.88783 13.2744 0.709776 12.8965C0.531721 12.5186 0.464978 12.0978 0.517358 11.6833C0.569738 11.2689 0.739073 10.8779 1.00555 10.5562C1.27203 10.2344 1.62462 9.99526 2.02207 9.86661C2.41953 9.73796 2.8454 9.72517 3.24986 9.82973C3.65432 9.93429 4.02063 10.1519 4.30594 10.457C4.59125 10.7622 4.78374 11.1423 4.86091 11.5529L4.87995 11.6449H9.36121V11.5497C9.42889 11.0273 9.62759 10.5306 9.93882 10.1057L9.99278 10.0295L6.86034 6.85579L6.79686 6.90974C6.43867 7.13565 6.02386 7.25558 5.60038 7.25568C5.01762 7.25568 4.45868 7.02439 4.04631 6.61262C3.63393 6.20084 3.40185 5.64224 3.401 5.05948C3.40093 4.77285 3.45813 4.4891 3.56923 4.22488C3.68033 3.96067 3.8431 3.72131 4.04798 3.52087C4.25286 3.32042 4.49572 3.16293 4.7623 3.05763C5.02889 2.95234 5.31382 2.90137 5.60038 2.90771C6.18343 2.90855 6.74236 3.14054 7.15464 3.55282C7.56692 3.9651 7.79891 4.52403 7.79975 5.10708C7.80116 5.56545 7.65171 6.01154 7.37447 6.37656L7.32052 6.45273L10.4181 9.59469L10.4974 9.53122C10.9527 9.1467 11.507 8.89813 12.0969 8.81396H12.1922V4.32635L12.0969 4.31048C11.5944 4.21389 11.1412 3.94533 10.8151 3.55094C10.4891 3.15654 10.3105 2.66092 10.3101 2.14919C10.3101 1.86271 10.3673 1.57911 10.4784 1.31506C10.5896 1.05102 10.7524 0.811864 10.9573 0.61167C11.1622 0.411477 11.4051 0.254286 11.6717 0.149344C11.9383 0.0444025 12.2231 -0.00617045 12.5095 0.000600176C13.0923 0.000599569 13.6512 0.231883 14.0636 0.643659C14.476 1.05544 14.7081 1.61404 14.7089 2.1968C14.7128 2.7055 14.5339 3.19869 14.2048 3.58662C13.8757 3.97454 13.4183 4.23142 12.9158 4.31048L12.8237 4.32953V8.81396H12.9189C13.4849 8.88964 14.0199 9.1166 14.4677 9.47092L14.547 9.53122L17.6826 6.39243L17.6287 6.31626C17.4356 6.03491 17.311 5.71226 17.2649 5.37414C17.2189 5.03602 17.2526 4.69181 17.3633 4.36904C17.4741 4.04627 17.6589 3.75391 17.9029 3.51535C18.1469 3.27678 18.4433 3.09863 18.7685 2.99515C19.0937 2.89168 19.4386 2.86574 19.7756 2.91942C20.1126 2.9731 20.4323 3.10491 20.7093 3.3043C20.9862 3.50369 21.2126 3.76513 21.3704 4.0677C21.5282 4.37027 21.613 4.70557 21.618 5.04678C21.6167 5.4448 21.5074 5.83501 21.302 6.17592C21.0966 6.51683 20.8026 6.7957 20.4513 6.98289C20.1001 7.17008 19.7047 7.25858 19.3071 7.239C18.9096 7.21941 18.5248 7.09247 18.1936 6.87166L18.127 6.82405L14.9533 9.94697L15.0136 10.0263C15.3561 10.4679 15.5751 10.9925 15.6483 11.5465V11.6417H20.1391V11.5497C20.2403 11.0111 20.5389 10.5297 20.9765 10.1998C21.414 9.8699 21.959 9.7152 22.5046 9.76603C23.0503 9.81686 23.5573 10.0695 23.9263 10.4746C24.2954 10.8797 24.5 11.4079 24.5 11.9559C24.5 12.5039 24.2954 13.0322 23.9263 13.4372C23.5573 13.8423 23.0503 14.095 22.5046 14.1458C21.959 14.1966 21.414 14.0419 20.9765 13.712C20.5389 13.3821 20.2403 12.9007 20.1391 12.3622V12.2733H15.6578V12.3685C15.5842 12.9494 15.3514 13.4986 14.985 13.9554L14.9215 14.0315L18.0952 17.1608L18.1714 17.1068C18.547 16.8559 18.9892 16.7232 19.4409 16.726C20.0179 16.7326 20.5692 16.9654 20.9764 17.3744C21.3835 17.7833 21.6139 18.3356 21.618 18.9127C21.6177 19.1992 21.5602 19.4827 21.4489 19.7467C21.3377 20.0108 21.1749 20.25 20.9701 20.4503C20.7653 20.6507 20.5226 20.8082 20.2562 20.9136C19.9898 21.0191 19.7051 21.0703 19.4187 21.0644C18.8354 21.0644 18.2759 20.8327 17.8635 20.4203C17.451 20.0078 17.2193 19.4484 17.2193 18.8651C17.2169 18.4316 17.3464 18.0076 17.5906 17.6495L17.6446 17.5734L14.4709 14.4378L14.3947 14.4949C13.9624 14.8154 13.4556 15.0207 12.9221 15.0915H12.8269V19.5855L12.9189 19.6045C13.4605 19.7021 13.9458 19.9995 14.2785 20.4379C14.6113 20.8762 14.7674 21.4234 14.716 21.9714C14.6645 22.5193 14.4092 23.0279 14.0006 23.3965C13.592 23.7652 13.0598 23.967 12.5095 23.962V23.962ZM12.5095 20.2393C12.1994 20.2387 11.8959 20.3299 11.6375 20.5014C11.3791 20.673 11.1773 20.9172 11.0574 21.2033C10.9376 21.4893 10.9051 21.8045 10.9641 22.109C11.0231 22.4135 11.1709 22.6937 11.3889 22.9144C11.6069 23.135 11.8853 23.2862 12.1891 23.3489C12.4929 23.4115 12.8084 23.3828 13.0959 23.2665C13.3834 23.1501 13.63 22.9512 13.8047 22.6949C13.9793 22.4386 14.0742 22.1363 14.0773 21.8261C14.0774 21.4085 13.9128 21.0078 13.6193 20.7107C13.3258 20.4137 12.9271 20.2443 12.5095 20.2393V20.2393ZM19.4187 17.3417C19.1077 17.3404 18.8033 17.4315 18.5442 17.6034C18.285 17.7752 18.0826 18.0201 17.9627 18.3071C17.8429 18.594 17.8109 18.9101 17.8708 19.2152C17.9306 19.5204 18.0798 19.8009 18.2992 20.0213C18.5187 20.2416 18.7986 20.3919 19.1035 20.453C19.4084 20.5141 19.7246 20.4834 20.012 20.3647C20.2995 20.246 20.5452 20.0446 20.7181 19.7861C20.891 19.5276 20.9833 19.2237 20.9833 18.9127C20.9784 18.4989 20.812 18.1035 20.5198 17.8106C20.2275 17.5178 19.8324 17.3506 19.4187 17.3449V17.3417ZM5.60038 17.3417C5.2894 17.3411 4.98523 17.4327 4.72639 17.6051C4.46756 17.7775 4.26571 18.0228 4.14642 18.31C4.02712 18.5972 3.99574 18.9133 4.05626 19.2184C4.11677 19.5234 4.26646 19.8036 4.48636 20.0235C4.70625 20.2434 4.98647 20.3931 5.2915 20.4536C5.59654 20.5141 5.91267 20.4828 6.19986 20.3635C6.48705 20.2442 6.73237 20.0423 6.90475 19.7835C7.07713 19.5246 7.16881 19.2205 7.16819 18.9095C7.15026 18.4997 6.97923 18.1116 6.68893 17.8219C6.39862 17.5322 6.01016 17.362 5.60038 17.3449V17.3417ZM12.5095 9.47092C12.0132 9.47659 11.5297 9.62927 11.1201 9.90966C10.7105 10.1901 10.3933 10.5856 10.2084 11.0462C10.0235 11.5069 9.9794 12.012 10.0815 12.4977C10.1837 12.9835 10.4275 13.428 10.7823 13.7752C11.137 14.1224 11.5867 14.3567 12.0745 14.4483C12.5623 14.54 13.0664 14.485 13.523 14.2903C13.9795 14.0956 14.3681 13.77 14.6397 13.3544C14.9112 12.9389 15.0535 12.4523 15.0485 11.9559C15.0393 11.2904 14.7671 10.6555 14.2914 10.1899C13.8157 9.72429 13.1751 9.46582 12.5095 9.47092V9.47092ZM22.3162 10.423C22.0053 10.4224 21.7011 10.5141 21.4423 10.6865C21.1834 10.8588 20.9816 11.1042 20.8623 11.3914C20.743 11.6785 20.7116 11.9947 20.7721 12.2997C20.8326 12.6047 20.9823 12.885 21.2022 13.1049C21.4221 13.3248 21.7023 13.4744 22.0074 13.535C22.3124 13.5955 22.6285 13.5641 22.9157 13.4448C23.2029 13.3255 23.4482 13.1237 23.6206 12.8648C23.793 12.606 23.8847 12.3018 23.8841 11.9908C23.8758 11.5788 23.7076 11.1861 23.415 10.8958C23.1224 10.6056 22.7284 10.4406 22.3162 10.4357V10.423ZM2.70279 10.423C2.28796 10.4271 1.89125 10.5936 1.59761 10.8866C1.30397 11.1796 1.13677 11.576 1.13181 11.9908C1.13258 12.1947 1.1741 12.3964 1.25392 12.584C1.33374 12.7716 1.45025 12.9413 1.59661 13.0832C1.74297 13.2252 1.91622 13.3364 2.10619 13.4104C2.29615 13.4844 2.49899 13.5197 2.70279 13.5142C3.12034 13.5092 3.51909 13.3398 3.81257 13.0428C4.10606 12.7457 4.27063 12.3449 4.2706 11.9274C4.24652 11.5265 4.07135 11.1497 3.7804 10.8728C3.48945 10.596 3.10436 10.4398 2.70279 10.4357V10.423ZM19.4187 3.52658C19.1077 3.52532 18.8033 3.61639 18.5442 3.78825C18.285 3.9601 18.0826 4.20501 17.9627 4.49196C17.8429 4.77891 17.8109 5.09498 17.8708 5.40013C17.9306 5.70529 18.0798 5.98581 18.2992 6.20615C18.5187 6.42649 18.7986 6.57674 19.1035 6.63787C19.4084 6.69901 19.7246 6.66827 20.012 6.54956C20.2995 6.43084 20.5452 6.22949 20.7181 5.97101C20.891 5.71253 20.9833 5.40854 20.9833 5.09756C20.9792 4.68328 20.8132 4.28703 20.5209 3.99348C20.2285 3.69993 19.8329 3.53236 19.4187 3.52658V3.52658ZM5.60038 3.52658C5.28953 3.52595 4.98549 3.61755 4.72672 3.78979C4.46796 3.96203 4.26611 4.20717 4.14672 4.49417C4.02733 4.78117 3.99576 5.09714 4.05602 5.40209C4.11628 5.70704 4.26565 5.98726 4.48523 6.20729C4.70481 6.42731 4.98472 6.57725 5.28955 6.63812C5.59438 6.69899 5.91041 6.66807 6.19766 6.54926C6.4849 6.43045 6.73044 6.2291 6.9032 5.97068C7.07597 5.71227 7.16818 5.40841 7.16819 5.09756C7.15854 4.68449 6.99036 4.29096 6.69849 3.9985C6.40662 3.70604 6.01343 3.53706 5.60038 3.52658V3.52658ZM12.5095 0.628993C12.3061 0.629764 12.1048 0.671198 11.9176 0.750859C11.7304 0.830519 11.561 0.9468 11.4194 1.09286C11.2777 1.23893 11.1667 1.41183 11.0929 1.60141C11.019 1.79099 10.9838 1.99342 10.9893 2.1968C10.9893 2.61261 11.1545 3.01139 11.4485 3.30541C11.7425 3.59943 12.1413 3.76461 12.5571 3.76461C12.9729 3.76461 13.3717 3.59943 13.6657 3.30541C13.9598 3.01139 14.1249 2.61261 14.1249 2.1968C14.1133 1.77641 13.9379 1.37718 13.6362 1.08428C13.3344 0.791386 12.9301 0.628005 12.5095 0.628993V0.628993Z" fill="#182349"/>
</g>
<defs>
<clipPath id="clip0_2431_1400">
<rect width="24" height="24" fill="white" transform="translate(0.5)"/>
</clipPath>
</defs>
</svg>
