<svg width="24" height="24" viewBox="0 0 24 24" fill="none" xmlns="http://www.w3.org/2000/svg">
<g id="Notification 1">
<path id="Vector" d="M14.9611 19.0116H20.2747C20.6437 19.0116 20.9758 18.7164 20.9758 18.3105V17.2403C20.9758 16.2809 20.2009 15.4691 19.2046 15.4691H18.8356V10.8566C18.8356 8.05215 17.0644 5.54292 14.4445 4.54661L14.2231 4.47281V4.10381C14.2231 2.9599 13.3006 2.00049 12.1198 2.00049C10.9389 2.00049 10.0164 2.9599 10.0164 4.10381V4.43591L9.79504 4.50971C7.13821 5.54292 5.40389 8.05215 5.40389 10.8566C5.40389 10.8566 5.40389 14.9894 5.40389 15.1001H5.03489V15.4691C4.07548 15.4691 3.26367 16.244 3.26367 17.2403V18.3105C3.26367 18.6795 3.59578 19.0116 3.96478 19.0116H9.27843L9.31533 19.3437C9.38913 20.8566 10.6437 22.0005 12.1198 22.0005C13.6327 22.0005 14.8504 20.8197 14.9611 19.3437V19.0116ZM3.96478 18.3105V17.2403C3.96478 16.6499 4.44448 16.1702 5.03489 16.1702C5.6253 16.1702 6.105 15.6905 6.105 15.1001V10.8566C6.105 8.16285 7.91312 5.80123 10.4592 5.06322L10.7175 4.98942V4.10381C10.7175 3.3289 11.3449 2.66469 12.1567 2.66469C12.9685 2.66469 13.5958 3.292 13.5958 4.10381V4.95252L13.8541 5.02632C16.4371 5.76433 18.2083 8.16285 18.2083 10.8197V15.0632C18.2083 15.6536 18.688 16.1333 19.2784 16.1333C19.8688 16.1333 20.3485 16.613 20.3485 17.2034V18.2736H3.96478V18.3105ZM14.26 19.4175C14.1493 20.5245 13.2268 21.3363 12.1198 21.3363C11.0127 21.3363 10.0902 20.5245 9.97954 19.4175L9.94264 19.0116H14.2969L14.26 19.4175Z" fill="white"/>
</g>
</svg>
