<svg width="24" height="24" viewBox="0 0 24 24" fill="none" xmlns="http://www.w3.org/2000/svg">
<g id="Service Delivery">
<g id="Layer_1">
<path id="Vector" d="M24 11.877C24 6.62695 19.75 2.37695 14.5 2.37695C12 2.37695 9.6 3.37695 7.8 5.17695C7.65 5.32695 7.65 5.57695 7.8 5.72695L9.25 7.17695C9.4 7.32695 9.65 7.32695 9.8 7.17695C9.85 7.12695 9.9 7.02695 9.9 6.92695C9.9 6.82695 9.85 6.72695 9.8 6.67695L8.6 5.47695L9.05 5.12695C10.35 4.07695 11.95 3.42695 13.6 3.27695L14.15 3.22695V4.87695C14.15 5.07695 14.3 5.22695 14.5 5.22695C14.7 5.22695 14.85 5.07695 14.85 4.87695V3.17695L15.4 3.22695C17.05 3.42695 18.65 4.07695 19.95 5.12695L20.4 5.47695L19.15 6.67695C19.1 6.72695 19.05 6.82695 19.05 6.92695C19.05 7.02695 19.1 7.12695 19.15 7.17695C19.3 7.32695 19.55 7.32695 19.7 7.17695L20.9 5.97695L21.25 6.37695C22.3 7.67695 22.95 9.22695 23.15 10.927L23.2 11.477H21.5C21.3 11.477 21.15 11.627 21.15 11.827C21.15 12.027 21.3 12.177 21.5 12.177H23.2L23.15 12.727C22.95 14.427 22.3 15.977 21.25 17.227L20.9 17.627L19.7 16.427C19.55 16.277 19.3 16.277 19.15 16.427C19 16.577 19 16.827 19.15 16.977L20.35 18.177L20 18.627C18.7 19.677 17.15 20.377 15.45 20.577L14.9 20.627V18.927C14.9 18.727 14.75 18.577 14.55 18.577C14.35 18.577 14.2 18.727 14.2 18.927V20.627L13.65 20.577C12 20.427 10.45 19.777 9.1 18.727L8.65 18.377L9.85 17.177C9.9 17.127 9.95 17.027 9.95 16.927C9.95 16.827 9.9 16.727 9.85 16.677C9.8 16.627 9.7 16.577 9.6 16.577C9.5 16.577 9.4 16.627 9.35 16.677L7.9 18.127C7.85 18.177 7.85 18.177 7.85 18.177V18.227C7.8 18.377 7.85 18.527 7.95 18.627C9.6 20.377 12 21.377 14.5 21.377C19.75 21.377 24 17.127 24 11.877Z" fill="#182349"/>
<path id="Vector_2" d="M18 12.2768C18.2 12.2768 18.35 12.1268 18.35 11.9268C18.35 11.7268 18.2 11.5768 18 11.5768H14.9V7.82681C14.9 7.62681 14.7 7.47681 14.5 7.47681C14.3 7.47681 14.15 7.62681 14.15 7.82681V11.8768C14.15 12.0768 14.3 12.2268 14.5 12.2268H18V12.2768Z" fill="black"/>
<path id="Vector_3" d="M6.2 11.5269H0.35C0.15 11.5269 0 11.6769 0 11.8769C0 12.0769 0.15 12.2269 0.35 12.2269H6.2C6.4 12.2269 6.55 12.0769 6.55 11.8769C6.55 11.6769 6.4 11.5269 6.2 11.5269Z" fill="black"/>
<path id="Vector_4" d="M6.2 8.12695H2.35C2.15 8.12695 2 8.27695 2 8.47695C2 8.67695 2.15 8.87695 2.35 8.87695H6.2C6.4 8.87695 6.55 8.72695 6.55 8.52695C6.55 8.32695 6.4 8.12695 6.2 8.12695Z" fill="black"/>
<path id="Vector_5" d="M6.2 14.8269H2.35C2.15 14.8269 2 14.9769 2 15.1769C2 15.3769 2.15 15.5269 2.35 15.5269H6.2C6.4 15.5269 6.55 15.3769 6.55 15.1769C6.55 14.9769 6.4 14.8269 6.2 14.8269Z" fill="black"/>
</g>
</g>
</svg>
