<svg width="23" height="23" viewBox="0 0 23 23" fill="none" xmlns="http://www.w3.org/2000/svg">
<g id="icon" clip-path="url(#clip0_1365_81331)">
<path id="Vector" d="M4.46273 14.834C4.58323 15.075 4.71518 15.3085 4.85858 15.5344L2.07227 21.3863L7.92324 18.6C10.0606 19.9288 12.6383 20.3542 15.0893 19.7825C17.5402 19.2108 19.6637 17.6889 20.9926 15.5516C21.139 15.3166 21.2737 15.0774 21.3966 14.834" stroke="#007DA4" stroke-width="1.12971" stroke-linecap="round" stroke-linejoin="round"/>
<path id="Vector_2" d="M20.5607 4.89147C19.6753 3.7004 18.5236 2.73295 17.1976 2.06641C15.8716 1.39987 14.408 1.05273 12.9239 1.05273C11.4398 1.05273 9.97628 1.39987 8.65026 2.06641C7.32425 2.73295 6.17252 3.7004 5.28711 4.89147" stroke="#007DA4" stroke-width="1.12971" stroke-linecap="round" stroke-linejoin="round"/>
<path id="Vector_3" d="M7.58665 7.28711H5.44021C5.09865 7.28711 4.77107 7.4228 4.52955 7.66432C4.28803 7.90584 4.15234 8.23341 4.15234 8.57498C4.15234 8.91654 4.28803 9.24411 4.52955 9.48563C4.77107 9.72716 5.09865 9.86284 5.44021 9.86284H6.29879C6.64035 9.86284 6.96792 9.99853 7.20945 10.24C7.45097 10.4816 7.58665 10.8091 7.58665 11.1507C7.58665 11.4923 7.45097 11.8198 7.20945 12.0614C6.96792 12.3029 6.64035 12.4386 6.29879 12.4386H4.15234" stroke="#007DA4" stroke-width="1.12971" stroke-linecap="round" stroke-linejoin="round"/>
<path id="Vector_4" d="M21.3249 7.28711H19.1785C18.8369 7.28711 18.5094 7.4228 18.2678 7.66432C18.0263 7.90584 17.8906 8.23341 17.8906 8.57498C17.8906 8.91654 18.0263 9.24411 18.2678 9.48563C18.5094 9.72716 18.8369 9.86284 19.1785 9.86284H20.0371C20.3786 9.86284 20.7062 9.99853 20.9477 10.24C21.1892 10.4816 21.3249 10.8091 21.3249 11.1507C21.3249 11.4923 21.1892 11.8198 20.9477 12.0614C20.7062 12.3029 20.3786 12.4386 20.0371 12.4386H17.8906" stroke="#007DA4" stroke-width="1.12971" stroke-linecap="round" stroke-linejoin="round"/>
<path id="Vector_5" d="M10.1641 12.4386V8.57498C10.1641 8.23341 10.2997 7.90584 10.5413 7.66432C10.7828 7.4228 11.1104 7.28711 11.4519 7.28711C11.7935 7.28711 12.1211 7.4228 12.3626 7.66432C12.6041 7.90584 12.7398 8.23341 12.7398 8.57498V8.57498C12.7398 8.23341 12.8755 7.90584 13.117 7.66432C13.3585 7.4228 13.6861 7.28711 14.0277 7.28711C14.3692 7.28711 14.6968 7.4228 14.9383 7.66432C15.1798 7.90584 15.3155 8.23341 15.3155 8.57498V12.4386" stroke="#007DA4" stroke-width="1.12971" stroke-linecap="round" stroke-linejoin="round"/>
</g>
<defs>
<clipPath id="clip0_1365_81331">
<rect width="21.6904" height="21.6904" fill="white" transform="translate(0.888672 0.373047)"/>
</clipPath>
</defs>
</svg>
