<svg width="24" height="24" viewBox="0 0 24 24" fill="none" xmlns="http://www.w3.org/2000/svg">
<g id="Support Center" clip-path="url(#clip0_2431_1406)">
<g id="Group 33">
<path id="Vector" d="M21.7627 19.2447C20.4536 19.2447 19.3869 18.1759 19.3869 16.8641V12.2973C19.3869 10.9856 20.4536 9.91675 21.7627 9.91675C23.0718 9.91675 24.1384 10.9856 24.1384 12.2973V16.8641C24.1384 18.1759 23.0718 19.2447 21.7627 19.2447ZM21.7627 10.5969C20.8415 10.5969 20.0657 11.3742 20.0657 12.2973V16.8641C20.0657 17.7872 20.8415 18.5645 21.7627 18.5645C22.6839 18.5645 23.4597 17.7872 23.4597 16.8641V12.2973C23.4597 11.3742 22.6839 10.5969 21.7627 10.5969Z" fill="#182349"/>
<path id="Vector_2" d="M2.51422 19.2447C1.20512 19.2447 0.138458 18.1759 0.138458 16.8641V12.2973C0.138458 10.9856 1.20512 9.91675 2.51422 9.91675C3.82331 9.91675 4.88997 10.9856 4.88997 12.2973V16.8641C4.88997 18.1759 3.82331 19.2447 2.51422 19.2447ZM2.51422 10.5969C1.593 10.5969 0.817246 11.3742 0.817246 12.2973V16.8641C0.817246 17.7872 1.593 18.5645 2.51422 18.5645C3.43543 18.5645 4.21118 17.7872 4.21118 16.8641V12.2973C4.21118 11.3742 3.43543 10.5969 2.51422 10.5969Z" fill="black"/>
<path id="Vector_3" d="M22.0536 10.3055H21.3748V9.81962C21.3748 4.71841 17.2051 0.540269 12.1142 0.540269C7.02332 0.540269 2.85362 4.71841 2.85362 9.81962V10.3055H2.17484V9.81962C2.17484 4.32974 6.63544 -0.139893 12.1142 -0.139893C17.593 -0.139893 22.0536 4.32974 22.0536 9.81962V10.3055Z" fill="black"/>
<path id="Vector_4" d="M12.1142 23.7629C11.096 23.7629 10.2718 22.937 10.2718 21.9167C10.2718 20.8965 11.096 20.0706 12.1142 20.0706C13.1324 20.0706 13.9566 20.8965 13.9566 21.9167C13.9566 22.937 13.1324 23.7629 12.1142 23.7629ZM12.1142 20.7507C11.4839 20.7507 10.9506 21.2851 10.9506 21.9167C10.9506 22.5483 11.4839 23.0827 12.1142 23.0827C12.7445 23.0827 13.2779 22.5483 13.2779 21.9167C13.2779 21.2851 12.7445 20.7507 12.1142 20.7507Z" fill="black"/>
<path id="Vector_5" d="M10.6112 22.3054H5.56877C3.67787 22.3054 2.17484 20.7993 2.17484 18.9045H2.85362C2.85362 20.4106 4.06574 21.6252 5.56877 21.6252H10.6112V22.3054Z" fill="black"/>
<path id="Vector_6" d="M12.1142 15.6982C8.86573 15.6982 6.19907 13.0262 6.19907 9.77112C6.19907 6.51606 8.86573 3.84399 12.1142 3.84399C15.3627 3.84399 18.0294 6.51606 18.0294 9.77112C18.0294 13.0262 15.3627 15.6982 12.1142 15.6982ZM12.1142 4.52416C9.20513 4.52416 6.87785 6.85614 6.87785 9.77112C6.87785 12.6861 9.20513 15.0181 12.1142 15.0181C15.0233 15.0181 17.3506 12.6861 17.3506 9.77112C17.3506 6.85614 15.0233 4.52416 12.1142 4.52416Z" fill="black"/>
<path id="Vector_7" d="M12.4536 10.111H9.10815V9.43083H11.7748V5.73853H12.4536V10.111Z" fill="black"/>
</g>
</g>
<defs>
<clipPath id="clip0_2431_1406">
<rect width="24" height="24" fill="white"/>
</clipPath>
</defs>
</svg>
