<svg width="20" height="21" viewBox="0 0 20 21" fill="none" xmlns="http://www.w3.org/2000/svg">
<g id="User-settings">
<g id="Group">
<path id="Vector" d="M8.96931 10.0834C9.98289 10.0834 11.1692 9.55006 11.886 8.83336C12.6027 8.11663 13.1359 7.00204 13.1359 5.98842C13.1359 4.9748 12.6026 3.71677 11.8859 3.00003C11.1692 2.28329 9.9829 1.75003 8.96928 1.75003C7.95566 1.75003 6.76935 2.28333 6.05261 3.00003C5.33588 3.71677 4.86212 4.9748 4.86212 5.98842C4.86398 7.0014 5.33638 8.1171 6.05264 8.83336C6.7689 9.54962 7.95633 10.0815 8.96931 10.0834ZM8.95273 2.86156C9.78208 2.86156 10.5774 3.19099 11.1637 3.77742C11.7502 4.36372 12.0796 5.15907 12.0796 5.98842C12.0796 6.81776 11.7502 7.61312 11.1637 8.19942C10.5774 8.78588 9.78208 9.11528 8.95273 9.11528C8.12339 9.11528 7.32804 8.78584 6.74173 8.19942C6.15527 7.61312 5.82587 6.81776 5.82587 5.98842C5.82773 5.15971 6.15779 4.36543 6.74376 3.77944C7.32974 3.19346 8.12403 2.86342 8.95273 2.86156Z" fill="black"/>
<path id="Vector_2" d="M8.94385 17.4717H2.71928V16.3334C2.72114 14.5794 3.1516 13.4069 4.38595 12.1667C5.62029 10.9265 7.22382 10.0853 8.96928 10.0834C9.16064 10.0834 9.38595 9.85903 9.38595 9.66675C9.38595 9.47447 9.13505 9.1153 8.94369 9.1153C7.01428 9.11716 5.16439 9.88816 3.80007 11.259C2.43579 12.6298 1.66849 14.4886 1.66663 16.4274V18.0001C1.67049 18.2819 2.02215 18.4167 2.30261 18.4167H8.96928C9.16064 18.4167 9.29021 18.1924 9.29021 18.0001C9.29021 17.8078 9.13521 17.4717 8.94385 17.4717Z" fill="black"/>
<path id="Vector_3" d="M17.6384 12.9568H17.1727L17.4994 12.6233C17.6287 12.493 17.7015 12.317 17.7015 12.1333C17.7015 11.9499 17.6287 11.7737 17.4994 11.6435L16.5196 10.6637C16.3891 10.5322 16.2115 10.4582 16.0262 10.4582C15.841 10.4582 15.6634 10.5322 15.533 10.6637L15.2063 10.9904V10.5248C15.2063 10.3405 15.1331 10.1637 15.0028 10.0334C14.8725 9.90311 14.6957 9.8299 14.5115 9.8299H13.1217C12.9375 9.8299 12.7607 9.90311 12.6304 10.0334C12.5001 10.1637 12.4269 10.3405 12.4269 10.5248V10.9904L12.0934 10.6637C11.9631 10.5344 11.7871 10.4616 11.6034 10.4616C11.42 10.4616 11.2438 10.5344 11.1136 10.6637L10.1338 11.6435C10.0023 11.774 9.92832 11.9516 9.92832 12.1369C9.92832 12.3221 10.0023 12.4997 10.1338 12.6301L10.4605 12.9568H9.99485C9.81059 12.9568 9.63377 13.03 9.50348 13.1603C9.3732 13.2906 9.29999 13.4674 9.29999 13.6517V15.0414C9.29999 15.2256 9.3732 15.4025 9.50348 15.5327C9.63377 15.663 9.81059 15.7362 9.99485 15.7362H10.4605L10.1338 16.0697C10.0045 16.2 9.93174 16.376 9.93174 16.5597C9.93174 16.7432 10.0045 16.9194 10.1338 17.0495L11.1136 18.0293C11.2438 18.1586 11.4199 18.2314 11.6034 18.2314C11.7871 18.2314 11.9631 18.1586 12.0934 18.0293L12.4269 17.7026V18.1683C12.4269 18.3525 12.5001 18.5293 12.6304 18.6596C12.7607 18.7899 12.9375 18.8631 13.1217 18.8631H14.5115C14.6957 18.8631 14.8725 18.7899 15.0028 18.6596C15.1331 18.5293 15.2063 18.3525 15.2063 18.1683V17.7026L15.5398 18.0293C15.6701 18.1586 15.8461 18.2314 16.0298 18.2314C16.2132 18.2314 16.3894 18.1586 16.5196 18.0293L17.4994 17.0495C17.6309 16.919 17.7049 16.7415 17.7049 16.5561C17.7049 16.3709 17.6309 16.1933 17.4994 16.0629L17.1727 15.7362H17.6384C17.8226 15.7362 17.9994 15.663 18.1297 15.5327C18.26 15.4024 18.3332 15.2256 18.3332 15.0414V13.6516C18.3332 13.4674 18.26 13.2906 18.1297 13.1603C17.9994 13.03 17.8226 12.9568 17.6384 12.9568ZM17.6384 15.0414H16.7628C16.6165 15.0414 16.4859 15.133 16.4363 15.2706C16.4076 15.3643 16.3704 15.455 16.3251 15.5417C16.2617 15.6751 16.2896 15.8339 16.3946 15.9377L17.013 16.5561L16.0262 17.5429L15.4078 16.9245C15.304 16.8195 15.1452 16.7916 15.0118 16.855C14.9251 16.9003 14.8344 16.9375 14.7407 16.9662C14.6031 17.0158 14.5115 17.1464 14.5115 17.2927V18.1683H13.1218V17.2927C13.1218 17.1464 13.0301 17.0158 12.8925 16.9662C12.7988 16.9375 12.7081 16.9003 12.6214 16.855C12.5732 16.8336 12.5214 16.8218 12.4686 16.8202C12.3765 16.8192 12.2881 16.857 12.2254 16.9245L11.607 17.5429L10.6203 16.5561L11.2386 15.9377C11.3424 15.8361 11.3703 15.6799 11.3081 15.5485C11.2664 15.4583 11.2317 15.3679 11.1969 15.2706C11.1473 15.133 11.0167 15.0414 10.8704 15.0414H9.99486V13.6516H10.8704C11.0167 13.6516 11.1473 13.56 11.1969 13.4224C11.2317 13.3252 11.2664 13.2347 11.3081 13.1445C11.3703 13.0131 11.3424 12.8569 11.2386 12.7553L10.6203 12.1369L11.607 11.1501L12.2254 11.7685C12.3292 11.8735 12.488 11.9015 12.6214 11.838C12.7081 11.7927 12.7988 11.7555 12.8925 11.7268C13.0301 11.6772 13.1218 11.5466 13.1218 11.4003V10.5248H14.5115V11.4003C14.5115 11.5466 14.6031 11.6772 14.7407 11.7268C14.8344 11.7555 14.9251 11.7927 15.0118 11.838C15.1452 11.9015 15.304 11.8735 15.4078 11.7685L16.0262 11.1501L17.013 12.1369L16.3946 12.7553C16.2896 12.8591 16.2617 13.0179 16.3251 13.1513C16.3704 13.238 16.4076 13.3287 16.4363 13.4224C16.4859 13.56 16.6165 13.6516 16.7628 13.6516H17.6384V15.0414Z" fill="black"/>
<path id="Vector_4" d="M13.8167 12.6094C13.3561 12.6094 12.9142 12.7924 12.5883 13.1181C12.2626 13.444 12.0796 13.8858 12.0796 14.3465C12.0796 14.8072 12.2626 15.249 12.5883 15.575C12.9142 15.9007 13.3561 16.0837 13.8167 16.0837C14.2774 16.0837 14.7193 15.9006 15.0452 15.575C15.3709 15.2491 15.5539 14.8072 15.5539 14.3465C15.5539 13.8858 15.3709 13.444 15.0452 13.1181C14.7193 12.7924 14.2774 12.6094 13.8167 12.6094ZM13.8167 15.3888C13.5403 15.3888 13.2751 15.279 13.0797 15.0836C12.8843 14.8881 12.7745 14.6229 12.7745 14.3465C12.7745 14.0702 12.8843 13.8049 13.0797 13.6095C13.2751 13.4141 13.5404 13.3043 13.8167 13.3043C14.0931 13.3043 14.3584 13.4141 14.5538 13.6095C14.7492 13.8049 14.859 14.0702 14.859 14.3465C14.859 14.6229 14.7492 14.8882 14.5538 15.0836C14.3583 15.279 14.0931 15.3888 13.8167 15.3888Z" fill="black"/>
</g>
</g>
</svg>
